<?xml version="1.0" standalone="no"?>
<!DOCTYPE svg PUBLIC "-//W3C//DTD SVG 20010904//EN"
 "http://www.w3.org/TR/2001/REC-SVG-20010904/DTD/svg10.dtd">
<svg version="1.0" xmlns="http://www.w3.org/2000/svg"
 width="512.000000pt" height="512.000000pt" viewBox="0 0 512.000000 512.000000"
 preserveAspectRatio="xMidYMid meet">
<metadata>
Created by potrace 1.14, written by Peter Selinger 2001-2017
</metadata>
<g transform="translate(0.000000,512.000000) scale(0.100000,-0.100000)"
fill="#000000" stroke="none">
<path d="M745 4290 c-3 -5 -12 -7 -21 -3 -8 3 -21 -3 -29 -13 -13 -18 -14 -18
-15 -1 0 9 -2 17 -4 17 -9 0 -54 -27 -85 -51 l-33 -26 113 -7 c63 -4 118 -11
123 -16 6 -6 27 -10 47 -10 33 0 37 3 43 31 9 44 8 49 -9 49 -8 0 -12 6 -9 14
3 8 -2 16 -13 19 -32 8 -102 6 -108 -3z"/>
<path d="M462 4179 c-23 -5 -49 -15 -58 -24 -8 -8 -21 -15 -29 -15 -7 0 -35
-22 -62 -48 -26 -27 -56 -51 -65 -55 -10 -3 -18 -11 -18 -17 0 -5 -5 -10 -11
-10 -12 0 -48 -40 -49 -54 0 -5 -10 -31 -22 -57 -17 -34 -28 -47 -39 -43 -10
3 -19 -3 -23 -12 -9 -22 2 -33 14 -14 8 12 10 10 10 -9 0 -21 3 -23 36 -18
l35 6 -35 -24 c-28 -19 -104 -49 -107 -42 0 1 -2 11 -4 21 -2 10 -11 26 -19
35 -15 14 -16 14 -16 -1 0 -9 6 -18 13 -21 9 -4 9 -7 0 -18 -10 -10 -13 -167
-12 -718 0 -698 6 -891 31 -1086 7 -55 12 -167 10 -250 -3 -208 20 -398 58
-467 6 -10 10 -23 10 -30 0 -7 13 -45 29 -84 16 -40 32 -97 36 -128 4 -31 11
-59 16 -62 5 -3 9 -13 9 -23 0 -21 36 -136 74 -235 20 -53 26 -87 26 -150 0
-44 4 -98 9 -118 5 -22 5 -38 0 -38 -5 0 -9 4 -9 9 0 5 -12 16 -26 25 -34 23
-125 13 -162 -19 -15 -12 -40 -25 -57 -29 -29 -7 -29 -7 -10 8 11 8 26 16 33
16 14 0 16 26 2 35 -5 3 -18 8 -27 10 -10 2 -26 6 -36 10 -15 6 -17 0 -17 -59
0 -36 2 -66 5 -66 2 0 19 8 37 19 48 26 96 31 138 12 19 -8 44 -15 54 -16 36
0 26 -20 -35 -74 l-61 -54 -36 17 -36 18 57 35 c31 19 57 39 57 45 0 12 -42 3
-84 -18 -45 -22 -66 -18 -36 7 l25 21 -25 -6 c-14 -3 -28 -6 -32 -6 -5 0 -8
-9 -8 -20 0 -11 -4 -20 -10 -20 -6 0 -10 -52 -10 -135 l0 -135 154 0 154 0 -4
33 c-1 17 -3 37 -3 43 -1 7 -20 15 -43 18 -24 3 -48 7 -55 8 -18 2 -24 26 -9
35 7 5 18 17 24 28 9 16 11 17 12 4 0 -9 -7 -22 -15 -29 -20 -17 -11 -28 20
-23 13 3 23 9 20 13 -6 9 35 1 50 -10 6 -4 26 -7 46 -6 l37 2 -6 -58 -5 -58
442 0 c385 0 441 2 441 15 0 11 11 15 35 15 20 0 61 13 93 30 53 27 209 76
217 68 2 -2 5 -31 7 -63 l3 -60 939 -3 c885 -2 940 -1 952 15 13 17 15 17 27
1 13 -16 70 -17 800 -18 l787 0 0 850 c0 739 -2 850 -15 850 -20 0 -53 37 -65
76 -6 18 -38 74 -71 123 -32 50 -59 94 -59 98 0 5 7 21 15 37 9 16 18 45 20
64 6 44 24 67 26 31 1 -16 3 -19 6 -6 6 23 40 22 53 -2 14 -27 13 -41 -5 -41
-8 0 -15 -4 -15 -10 0 -5 9 -10 20 -10 21 0 55 -62 67 -122 16 -83 23 7 23
316 0 266 -3 346 -13 350 -9 5 -9 7 1 12 15 7 18 429 2 439 -6 3 -10 21 -10
39 0 30 -2 32 -29 28 -25 -3 -28 -8 -27 -39 1 -23 -4 -38 -13 -41 -10 -3 -13
2 -9 22 6 30 -1 32 -44 10 -22 -12 -27 -19 -19 -27 17 -17 13 -45 -8 -57 -28
-14 -31 -13 -31 15 0 14 5 25 10 25 6 0 10 7 10 15 0 12 -7 11 -37 -6 -49 -27
-46 -24 -33 -49 13 -25 2 -45 -32 -53 -18 -5 -20 -2 -15 29 7 44 -11 45 -63 4
-35 -28 -38 -34 -33 -66 4 -25 1 -40 -13 -55 -17 -19 -19 -19 -25 -2 -3 10 -2
28 4 41 12 26 0 44 -14 20 -6 -11 -28 -20 -59 -24 -28 -4 -50 -10 -50 -15 0
-5 -9 -9 -20 -9 -11 0 -20 -3 -20 -8 0 -8 -12 -15 -79 -47 -40 -19 -55 -45
-26 -45 9 0 15 -9 15 -25 0 -36 -37 -34 -51 3 -9 23 -12 25 -22 12 -7 -9 -29
-24 -50 -33 -36 -17 -42 -37 -11 -37 8 0 14 -10 14 -25 0 -15 -6 -25 -14 -25
-8 0 -16 -5 -18 -12 -8 -22 -30 4 -25 28 5 29 -8 40 -27 25 -8 -7 -18 -11 -22
-9 -5 1 -26 -6 -48 -15 -21 -9 -40 -17 -42 -17 -2 0 6 16 18 36 19 33 23 35
58 29 36 -6 39 -4 67 37 27 41 31 43 70 40 38 -3 43 -1 58 28 22 42 14 65 -16
49 -21 -11 -22 -10 -16 20 6 27 3 32 -20 37 l-27 7 29 22 c34 28 25 45 -24 45
-33 0 -40 -4 -57 -37 -18 -35 -24 -38 -62 -38 -44 0 -92 -32 -92 -60 0 -11
-13 -15 -54 -15 -50 0 -54 -2 -69 -32 -15 -30 -19 -32 -61 -29 -28 1 -46 -2
-46 -8 0 -16 -32 -51 -41 -45 -21 12 22 68 61 79 79 22 96 40 60 63 -27 17
-25 31 7 43 33 12 52 -3 33 -26 -7 -8 -10 -18 -7 -21 7 -7 67 18 67 28 0 9 59
38 77 38 19 0 16 13 -7 28 -24 14 -27 52 -5 52 9 0 18 7 21 15 4 8 12 15 19
15 15 0 28 -42 19 -64 -3 -9 -2 -16 4 -16 5 0 12 7 16 15 3 8 12 12 21 9 10
-4 15 0 15 10 0 9 8 16 20 16 22 0 25 12 11 39 -12 21 15 81 35 81 17 0 28
-41 19 -72 -5 -20 -4 -20 5 -5 6 9 20 17 30 17 11 0 20 5 20 11 0 5 14 15 30
20 17 6 30 15 30 19 0 5 10 10 23 12 21 3 20 4 -8 18 -40 20 -46 57 -11 66 14
3 26 10 26 15 0 21 38 7 49 -18 10 -22 10 -28 -4 -35 -8 -5 -13 -13 -10 -19
10 -15 22 -10 28 11 3 12 14 20 26 20 12 0 21 5 21 10 0 6 10 10 23 10 19 1
20 2 7 13 -14 11 -40 51 -40 61 0 7 71 46 85 46 7 0 16 -13 20 -30 7 -30 36
-42 50 -20 3 6 13 10 21 10 25 0 49 29 35 43 -17 17 -13 55 10 78 27 27 51 21
63 -19 5 -17 12 -32 17 -32 16 0 18 19 5 45 -8 15 -12 34 -9 41 5 12 -8 19
-29 15 -5 0 -8 9 -8 22 1 20 2 20 13 5 8 -9 18 -13 25 -9 18 11 -9 59 -40 75
-25 13 -63 15 -74 3 -4 -4 -23 -7 -43 -7 -20 -1 -54 -12 -76 -25 -22 -14 -51
-30 -65 -36 -14 -6 -32 -15 -40 -20 -8 -5 -29 -16 -47 -25 -18 -9 -37 -22 -44
-30 -6 -8 -17 -14 -23 -14 -6 0 -22 -9 -36 -20 -14 -11 -33 -20 -42 -20 -10 0
-18 -4 -18 -10 0 -5 -7 -10 -15 -10 -8 0 -23 -8 -33 -18 -19 -19 -84 -53 -91
-47 -8 9 25 38 57 52 17 7 32 18 32 23 0 6 8 10 18 10 10 0 25 8 33 18 9 9 31
26 49 37 18 11 50 30 69 42 20 13 47 27 59 33 13 6 26 19 29 30 3 11 17 23 32
26 14 4 31 12 36 18 6 7 18 15 28 19 23 9 22 24 -3 32 -11 3 -20 13 -20 20 0
21 -90 7 -111 -17 -9 -10 -24 -18 -33 -18 -14 0 -15 4 -5 21 6 12 9 32 6 45
-2 13 1 26 7 28 6 3 0 4 -14 3 -17 -1 -30 -12 -40 -34 -8 -18 -21 -33 -27 -33
-7 0 -13 -4 -13 -10 0 -5 -7 -10 -15 -10 -9 0 -34 -12 -58 -27 -23 -15 -53
-33 -67 -39 -36 -16 -90 -64 -90 -80 0 -22 -39 -37 -80 -30 -30 5 -45 1 -76
-20 -22 -15 -41 -30 -44 -34 -3 -4 -15 -10 -27 -14 -13 -4 -23 -12 -23 -17 0
-5 -4 -9 -10 -9 -5 0 -10 9 -10 20 0 23 -4 24 -31 10 -10 -6 -19 -20 -19 -30
0 -11 -5 -20 -11 -20 -17 0 -49 40 -49 61 0 19 35 49 58 49 7 0 37 15 66 34
39 25 57 44 65 68 17 52 59 78 126 78 65 0 125 22 125 45 0 9 -9 28 -20 42
-13 17 -18 34 -14 52 l5 26 -21 -24 c-19 -23 -22 -23 -37 -8 -15 15 -15 18 2
37 19 21 19 21 -8 15 -17 -5 -27 -3 -27 4 0 6 -8 11 -19 11 -13 0 -20 -9 -24
-30 -6 -27 -37 -44 -37 -20 0 6 -5 10 -10 10 -6 0 -20 9 -32 20 -23 21 -38 26
-38 11 0 -5 -16 -12 -35 -15 -39 -8 -43 -17 -19 -41 15 -15 15 -17 -1 -35 -10
-11 -24 -20 -31 -20 -8 0 -21 -11 -29 -24 -9 -14 -30 -29 -46 -35 -16 -5 -29
-17 -29 -25 0 -23 -20 -30 -47 -15 -33 18 -56 2 -64 -44 -7 -42 -27 -70 -46
-63 -8 3 -13 -2 -13 -13 0 -11 6 -21 13 -24 27 -10 -12 -28 -63 -29 -46 -1
-54 -5 -69 -29 -13 -21 -21 -25 -28 -18 -14 14 -33 3 -33 -17 0 -8 -4 -14 -10
-14 -20 0 -9 42 24 95 19 29 32 55 29 58 -7 8 24 63 34 57 12 -8 16 61 4 73
-25 25 4 77 41 77 19 0 44 28 34 38 -4 4 -13 0 -19 -9 -7 -9 -18 -14 -24 -12
-19 7 -16 21 7 28 24 7 27 22 5 22 -14 0 -48 -49 -84 -119 -20 -39 -31 -35
-31 12 0 29 5 42 20 50 11 6 20 17 20 25 0 20 -6 19 -30 -5 -11 -11 -26 -20
-33 -20 -8 0 -20 -11 -27 -25 -14 -27 -43 -35 -34 -10 5 11 2 13 -10 9 -24 -9
-45 -55 -39 -87 4 -20 1 -27 -10 -27 -8 0 -17 -6 -20 -12 -10 -27 -37 26 -31
60 4 20 2 32 -5 32 -14 0 -14 45 1 69 16 26 3 51 -27 51 -23 0 -29 -8 -26 -37
2 -11 -37 -38 -44 -31 -2 2 2 22 8 45 12 48 6 63 -18 39 -10 -9 -12 -16 -5
-16 6 0 10 -12 8 -27 -2 -20 -9 -28 -23 -28 -14 0 -22 11 -30 42 -5 23 -13 45
-17 49 -5 4 -8 16 -8 26 0 25 -16 23 -45 -6 l-24 -24 -26 34 c-15 19 -31 32
-36 28 -5 -3 -16 -1 -23 5 -8 7 -20 10 -27 9 -8 -2 -13 3 -11 11 2 8 -3 11
-13 8 -9 -4 -15 -1 -15 8 0 13 -12 19 -32 16 -4 0 -19 4 -33 9 -16 6 -25 6
-25 0 0 -19 -21 -10 -31 14 -14 30 -52 40 -144 36 -18 -1 -19 -2 -2 -11 20
-12 23 -35 5 -42 -9 -4 -8 -6 3 -6 9 -1 22 -13 30 -28 15 -30 20 -35 125 -128
43 -39 74 -76 87 -105 11 -25 28 -64 38 -87 21 -47 17 -98 -7 -89 -9 3 -14 -2
-14 -14 0 -20 -14 -25 -55 -21 -10 1 -26 -2 -35 -5 -8 -4 -21 -8 -28 -10 -24
-5 -26 -14 -4 -14 33 0 27 -16 -15 -41 -35 -22 -74 -53 -109 -87 -8 -7 -14
-20 -14 -29 0 -13 -2 -13 -16 -2 -25 21 -152 30 -192 13 -28 -11 -34 -11 -45
2 -50 60 -77 83 -103 88 -16 4 -22 3 -14 0 8 -4 26 -18 39 -31 14 -12 29 -23
32 -23 4 0 16 -20 28 -45 21 -45 19 -75 -5 -75 -17 0 -19 -26 -1 -34 8 -3 7
-8 -5 -16 -23 -14 -26 -92 -4 -84 23 9 9 -28 -26 -70 -17 -21 -49 -49 -72 -64
-39 -25 -48 -27 -159 -27 -76 0 -120 4 -125 11 -4 6 -16 14 -28 18 -23 7 -94
74 -94 88 0 5 -11 6 -25 2 -19 -5 -27 -2 -32 12 -3 11 -13 23 -21 28 -12 7
-12 10 -1 17 10 6 7 8 -10 6 -28 -4 -42 -27 -17 -27 9 0 16 -7 16 -15 0 -9 -9
-15 -25 -15 -14 0 -28 -1 -32 -2 -9 -4 -24 63 -17 81 3 11 8 10 19 -5 13 -17
15 -14 13 36 -1 58 -22 115 -38 105 -6 -4 -10 -15 -10 -26 0 -14 -7 -19 -25
-19 -27 0 -34 -17 -10 -26 8 -4 15 -13 15 -21 0 -8 5 -11 10 -8 6 3 10 -3 10
-14 0 -17 -6 -21 -30 -21 -27 0 -31 4 -41 45 -10 40 -14 45 -41 45 -35 0 -47
-24 -24 -49 22 -24 20 -31 -9 -31 -22 0 -25 -4 -25 -35 0 -33 -1 -34 -30 -28
-26 5 -30 2 -30 -15 0 -12 5 -24 10 -27 13 -8 13 -42 -1 -50 -6 -4 -13 2 -16
14 -3 12 -12 20 -21 19 -9 -2 -17 4 -17 12 0 14 -6 16 -35 12 -7 -1 -8 -15 -4
-37 7 -40 7 -40 -34 -20 -34 18 -34 42 1 47 29 4 35 38 8 45 -12 3 -21 13 -21
23 0 9 -11 22 -25 28 -14 6 -25 16 -25 21 0 5 -9 11 -20 14 -37 9 -21 22 30
24 40 1 50 -2 50 -15 0 -10 5 -34 11 -54 10 -37 12 -38 54 -38 49 0 49 0 45
71 -2 46 -1 47 34 53 19 4 37 10 40 14 2 4 0 27 -4 52 -9 45 0 100 20 130 9
13 12 13 24 -2 7 -10 18 -18 25 -18 23 0 11 -40 -13 -46 -26 -6 -41 -30 -26
-39 6 -4 15 -3 20 0 6 3 10 -1 10 -9 0 -15 34 -56 46 -56 4 0 4 8 1 19 -7 27
15 106 36 129 13 15 15 22 7 27 -9 6 -9 9 0 15 16 10 -9 92 -30 97 -9 3 -22
20 -29 39 -7 19 -16 34 -21 34 -10 0 -80 65 -80 74 0 4 -6 14 -14 22 -8 7 -23
24 -33 37 -10 13 -28 29 -41 36 -12 6 -28 26 -36 44 -14 32 -81 107 -96 107
-5 0 -18 15 -29 33 -24 38 -87 90 -113 92 -10 1 -27 11 -38 23 -12 12 -30 22
-40 22 -11 0 -20 4 -20 9 0 8 -99 24 -160 26 -14 1 -40 7 -58 14 -29 12 -31
15 -16 26 22 15 9 38 -17 30 -13 -4 -19 -2 -19 9 0 23 -116 38 -188 25z m12
-244 c-6 -15 -42 -30 -51 -21 -12 12 8 36 31 36 18 0 24 -4 20 -15z m136 -34
c-6 -12 -20 -21 -30 -21 -13 0 -20 -7 -20 -20 0 -17 5 -19 25 -14 16 4 25 2
25 -6 0 -7 8 -10 20 -7 10 3 21 0 23 -6 2 -7 16 -11 30 -9 18 1 27 -3 27 -13
0 -21 27 -19 39 3 7 13 6 23 -2 31 -8 8 -6 16 10 33 20 19 23 20 29 5 4 -10
17 -17 35 -17 l28 0 -17 -30 c-11 -19 -25 -30 -38 -30 -23 0 -40 -25 -23 -35
5 -4 18 -3 29 0 16 5 20 2 20 -15 0 -18 4 -21 21 -17 15 4 23 -1 30 -20 8 -21
12 -23 25 -12 11 9 14 22 10 41 -3 15 -1 28 4 28 6 0 10 6 10 14 0 26 20 28
29 2 8 -18 15 -23 30 -19 15 4 21 1 21 -12 0 -22 -27 -48 -43 -42 -16 6 -41
-29 -31 -44 3 -5 14 -7 25 -4 14 5 19 2 19 -13 0 -23 -18 -32 -63 -32 -29 0
-35 5 -55 49 -25 55 -55 68 -100 45 -25 -13 -27 -12 -54 36 -15 27 -32 51 -38
55 -6 4 -30 -3 -54 -15 -44 -21 -44 -21 -41 -70 2 -45 1 -49 -19 -47 -12 1
-20 -3 -18 -11 4 -21 -28 -26 -43 -6 -12 17 -12 21 3 32 14 10 14 16 4 32 -23
37 -16 52 22 45 44 -9 53 7 28 50 -20 33 -20 34 -1 51 10 9 19 23 19 30 0 11
50 36 58 28 2 -1 -1 -12 -8 -23z m-265 -33 c-36 -19 -65 -18 -65 1 0 11 29 17
74 18 29 0 29 0 -9 -19z m124 8 c37 -2 33 -19 -9 -33 -46 -17 -47 -16 -60 7
-14 27 -4 43 23 34 11 -4 32 -7 46 -8z m-124 -96 c8 -15 11 -30 8 -34 -10 -10
-55 -7 -49 3 4 5 3 16 0 25 -5 12 -10 13 -26 5 -11 -6 -17 -17 -14 -25 5 -12
0 -11 -24 3 l-31 18 43 20 c52 25 74 22 93 -15z m2620 -29 c3 -5 1 -12 -5 -16
-5 -3 -10 1 -10 9 0 18 6 21 15 7z m-2935 -41 c-6 -11 -13 -20 -16 -20 -2 0 0
9 6 20 6 11 13 20 16 20 2 0 0 -9 -6 -20z m3970 -4 c0 -17 -7 -26 -24 -30 -13
-3 -41 -23 -62 -43 -22 -21 -56 -49 -77 -63 -20 -14 -37 -28 -37 -32 0 -9 -60
-64 -127 -117 -29 -23 -53 -36 -53 -29 1 7 12 22 27 33 75 59 93 78 93 101 0
13 5 24 10 24 6 0 31 20 58 45 26 25 49 45 52 45 3 0 32 20 65 45 33 25 63 45
68 45 4 0 7 -11 7 -24z m-3198 -83 c8 -10 6 -13 -8 -13 -24 0 -47 -35 -39 -61
5 -15 3 -17 -12 -11 -10 4 -29 14 -42 23 -29 22 -26 70 7 84 12 5 22 13 22 18
0 10 57 -22 72 -40z m348 7 c0 -15 7 -20 25 -20 43 0 21 -55 -25 -62 -14 -2
-26 -11 -28 -21 -3 -14 2 -18 20 -15 17 2 24 -2 26 -19 2 -14 10 -23 22 -23
10 0 20 -9 23 -21 6 -24 27 -17 27 10 0 21 22 71 32 71 4 0 10 -11 14 -24 3
-15 11 -23 19 -20 7 3 15 1 19 -4 8 -13 -23 -54 -36 -46 -6 4 -14 0 -19 -7
-13 -21 -11 -26 11 -32 11 -3 20 -12 20 -20 0 -8 9 -17 20 -20 11 -3 20 -12
20 -21 0 -9 7 -16 16 -16 9 0 14 -7 12 -16 -2 -11 -16 -17 -40 -20 -33 -3 -37
0 -48 29 -30 80 -27 77 -73 77 -44 0 -45 0 -57 45 -15 54 -27 65 -79 72 -55 8
-62 -13 -28 -83 30 -60 34 -82 15 -67 -14 11 -34 14 -85 13 -23 0 -33 5 -33
16 0 21 -30 77 -46 87 -8 4 -14 14 -14 21 0 10 10 12 40 6 34 -6 66 -7 91 -1
10 2 -3 65 -19 89 -14 21 -13 25 1 39 15 15 17 14 26 -10 7 -18 18 -27 32 -27
13 0 23 -8 26 -20 8 -30 28 -18 29 16 1 38 13 64 30 64 8 0 14 -9 14 -20z
m2910 5 c0 -2 -13 -8 -30 -14 -34 -11 -37 -9 -15 13 13 12 45 13 45 1z m-80
-34 c0 -5 -7 -17 -16 -25 -28 -29 -42 -20 -24 15 11 19 40 27 40 10z m-3465
-31 c3 -5 1 -10 -4 -10 -6 0 -11 5 -11 10 0 6 2 10 4 10 3 0 8 -4 11 -10z
m2835 -20 c0 -5 -4 -10 -10 -10 -5 0 -10 5 -10 10 0 6 5 10 10 10 6 0 10 -4
10 -10z m560 -15 c0 -21 -28 -57 -49 -62 -14 -3 -32 -10 -39 -16 -7 -5 -15 -7
-18 -4 -3 3 7 12 24 21 16 8 37 26 46 40 14 23 36 35 36 21z m-3300 -15 c0 -5
-12 -10 -26 -10 -14 0 -23 4 -19 10 3 6 15 10 26 10 10 0 19 -4 19 -10z m4210
0 c0 -5 -4 -10 -10 -10 -5 0 -10 5 -10 10 0 6 5 10 10 10 6 0 10 -4 10 -10z
m-4162 -22 c-4 -12 -48 -20 -48 -8 0 12 13 20 33 20 10 0 17 -5 15 -12z m3650
3 c28 -3 9 -21 -29 -27 -30 -5 -43 -13 -50 -30 -5 -15 -17 -24 -30 -24 -21 0
-20 1 5 21 15 12 31 32 36 44 6 16 16 22 32 20 13 -1 29 -3 36 -4z m-3498 -87
c12 -36 6 -59 -10 -35 -5 8 -17 12 -30 8 -16 -4 -24 -1 -27 14 -3 10 -14 19
-24 19 -29 0 -22 18 9 23 66 10 70 8 82 -29z m3960 32 c0 -3 -4 -8 -10 -11 -5
-3 -10 -1 -10 4 0 6 5 11 10 11 6 0 10 -2 10 -4z m-1870 -78 c10 -6 0 -8 -30
-6 -38 3 -45 0 -42 -14 3 -19 86 -108 100 -108 10 0 52 -55 52 -68 0 -5 9 -17
20 -27 10 -9 27 -38 37 -64 9 -25 21 -49 26 -52 10 -7 -21 -57 -56 -92 -54
-54 -179 -79 -268 -54 -100 29 -199 141 -199 224 0 24 5 43 10 43 6 0 10 5 10
10 0 6 -7 10 -16 10 -13 0 -15 7 -9 37 4 21 16 50 27 65 37 53 122 104 183
110 46 5 138 -3 155 -14z m-2170 -28 c-8 -5 -17 -7 -19 -4 -3 3 1 9 9 14 8 5
17 7 19 4 3 -3 -1 -9 -9 -14z m226 -79 c-5 -2 -13 4 -18 13 -5 9 -18 16 -29
16 -11 0 -22 7 -25 15 -4 8 -12 15 -20 15 -8 0 -14 7 -14 16 0 12 6 15 23 11
12 -3 31 -2 42 3 17 6 22 1 35 -39 8 -25 11 -48 6 -50z m272 35 c15 -14 22
-31 22 -56 0 -34 -2 -38 -27 -38 -51 0 -63 13 -51 54 5 20 7 48 3 62 -6 23 -5
24 12 12 10 -8 28 -23 41 -34z m-468 20 c0 -3 -4 -8 -10 -11 -5 -3 -10 -1 -10
4 0 6 5 11 10 11 6 0 10 -2 10 -4z m3123 -25 c-3 -11 -13 -21 -23 -24 -14 -4
-17 -1 -13 12 15 41 47 52 36 12z m-61 -58 c-14 -26 -49 -56 -61 -52 -6 2 5
21 25 43 35 39 54 44 36 9z m-2745 5 c4 -7 13 -28 19 -46 10 -28 9 -34 -6 -42
-10 -5 -17 -22 -18 -41 -1 -33 -12 -52 -19 -31 -3 6 -13 12 -24 12 -28 0 -23
19 11 38 41 24 38 43 -15 76 -25 16 -45 33 -45 37 0 14 88 10 97 -3z m1416 -9
c19 -11 22 -36 7 -59 -7 -12 -12 -12 -22 -2 -34 34 -37 9 -14 -113 2 -11 4
-25 5 -32 0 -7 7 -10 15 -7 8 3 17 1 21 -5 3 -6 2 -11 -4 -11 -6 0 -6 -11 -1
-31 8 -28 5 -34 -37 -75 -35 -34 -50 -43 -67 -38 -27 8 -66 52 -60 68 3 7 -7
18 -21 24 -28 13 -32 39 -10 68 17 22 20 38 5 29 -16 -10 -11 7 15 50 31 50
34 105 6 105 -24 0 -36 16 -20 26 38 23 140 25 182 3z m-1557 -23 c6 -26 -1
-46 -17 -46 -5 0 -9 9 -9 21 0 16 -4 19 -21 14 -18 -6 -20 -5 -10 14 16 29 49
27 57 -3z m3194 18 c0 -10 -44 -43 -57 -44 -22 0 -14 19 15 34 29 16 42 19 42
10z m-430 -114 c-6 -11 -21 -20 -34 -20 -13 0 -35 -11 -50 -25 -15 -14 -32
-25 -37 -25 -17 0 -5 33 12 35 9 2 34 14 55 28 49 32 69 35 54 7z m-562 -224
c1 -46 -3 -96 -8 -112 -8 -29 -8 -29 -9 9 -1 44 -16 77 -35 77 -7 0 -24 13
-38 28 l-25 29 33 37 c18 20 36 47 40 58 6 20 8 19 24 -11 11 -23 17 -60 18
-115z m-1592 116 c12 -8 39 -81 32 -87 -2 -3 -20 -2 -40 2 -31 5 -39 11 -52
44 -9 22 -16 42 -16 44 0 8 64 5 76 -3z m1045 -55 c12 -22 12 -22 -10 -3 -11
11 -21 23 -21 28 0 14 19 -1 31 -25z m-1153 -39 c13 -46 4 -55 -23 -24 -32 37
-55 34 -55 -7 0 -44 -7 -50 -31 -26 -21 21 -18 39 6 39 8 0 17 11 21 25 5 20
12 25 40 25 29 0 35 -4 42 -32z m274 10 c9 -13 17 -49 20 -82 3 -40 10 -61 21
-68 10 -5 17 -19 17 -31 0 -13 4 -27 10 -33 16 -16 31 -116 24 -166 -5 -42 -8
-46 -21 -33 -8 9 -19 30 -24 48 -5 17 -14 39 -19 47 -9 13 -12 12 -26 -5 -15
-20 -15 -20 -32 1 -9 12 -25 24 -34 27 -14 5 -15 12 -7 41 7 25 6 42 -1 56 -6
11 -8 25 -5 30 9 14 32 12 38 -2 3 -7 6 3 6 23 1 33 -2 37 -29 41 -31 5 -35
-2 -32 -44 1 -10 -1 -18 -3 -18 -14 0 -105 53 -105 62 0 5 -5 6 -10 3 -11 -7
-40 17 -40 33 0 25 70 30 70 5 1 -29 26 -55 50 -51 15 2 26 15 36 43 8 22 12
45 9 52 -9 25 14 22 46 -4 31 -26 32 -26 17 -4 -16 22 -15 51 2 51 4 0 14 -10
22 -22z m875 -66 c3 -13 3 -26 0 -29 -8 -8 -48 4 -71 22 -17 13 -18 18 -6 40
13 24 14 24 42 7 16 -9 31 -27 35 -40z m-713 22 c16 -8 57 -19 92 -25 43 -7
69 -18 84 -34 23 -24 20 -45 -6 -45 -11 0 -14 -10 -12 -36 1 -23 -3 -40 -13
-48 -9 -6 -21 -21 -28 -33 -10 -20 -14 -21 -32 -10 -15 9 -18 18 -14 37 4 14
3 22 0 18 -7 -7 -55 55 -55 69 0 4 -10 18 -22 31 -13 14 -17 22 -10 18 8 -5
12 0 12 13 0 12 -4 21 -10 21 -5 0 -10 -4 -10 -10 0 -21 -31 -9 -40 16 -19 49
-8 52 64 18z m2002 -58 c-17 -26 -35 -31 -42 -12 -8 20 37 60 48 43 4 -7 1
-21 -6 -31z m398 25 c3 -4 -15 -29 -40 -55 -44 -44 -48 -46 -105 -46 -64 0
-73 5 -34 20 13 5 27 20 31 34 6 24 35 41 84 49 45 8 59 7 64 -2z m336 -20
c15 -29 13 -32 -17 -25 -37 9 -38 11 -23 29 17 20 27 19 40 -4z m-1735 0 c43
-9 44 -40 4 -79 -27 -26 -41 -32 -76 -32 -42 0 -44 2 -63 44 -10 24 -24 47
-30 51 -34 21 87 33 165 16z m2095 -11 c0 -5 -4 -10 -10 -10 -5 0 -10 5 -10
10 0 6 5 10 10 10 6 0 10 -4 10 -10z m-3487 -32 c6 -19 -3 -38 -19 -38 -8 0
-14 10 -14 25 0 26 25 35 33 13z m3422 -7 c-3 -6 -11 -11 -17 -11 -6 0 -6 6 2
15 14 17 26 13 15 -4z m-2231 -33 c12 -47 7 -65 -16 -63 -19 2 -23 8 -21 30 4
57 25 75 37 33z m-1094 -22 c0 -14 -4 -27 -9 -31 -12 -7 -25 31 -16 45 11 18
25 10 25 -14z m2394 -11 c-5 -21 -1 -27 22 -36 l29 -12 -33 -7 c-53 -12 -75
-2 -67 29 8 32 23 51 41 51 10 0 13 -7 8 -25z m846 16 c0 -5 -9 -11 -19 -14
-14 -3 -18 -1 -14 9 6 15 33 19 33 5z m-2335 -45 c18 -17 22 -27 14 -31 -6 -4
-15 -2 -19 5 -8 13 -13 7 -35 -35 -13 -25 -57 -31 -75 -11 -11 14 -9 16 13 16
30 0 45 17 23 26 -19 7 -21 40 -3 47 28 12 57 6 82 -17z m-116 -8 c-16 -29
-35 -48 -42 -42 -8 9 4 37 21 52 24 19 34 14 21 -10z m1708 -54 c2 -5 -17 -18
-42 -30 -25 -12 -44 -18 -42 -15 2 3 10 20 17 37 11 27 17 30 39 25 13 -4 26
-11 28 -17z m571 -33 c-7 -12 -22 -21 -33 -21 -17 0 -16 3 10 24 35 28 42 27
23 -3z m327 20 c3 -5 -3 -12 -14 -16 -12 -3 -21 -19 -26 -42 -5 -28 -9 -33
-16 -22 -8 12 -11 11 -23 -3 -7 -10 -18 -18 -24 -18 -6 0 -16 -9 -22 -20 -6
-11 -19 -20 -30 -20 -11 0 -24 -9 -30 -20 -6 -11 -20 -20 -31 -20 -11 0 -22
-7 -25 -15 -4 -8 -18 -15 -34 -15 -16 0 -30 -7 -34 -15 -3 -8 -15 -15 -28 -15
-21 0 -21 1 6 29 19 20 38 29 57 29 19 -1 35 7 49 24 10 14 32 28 47 31 17 4
35 18 45 36 9 17 25 31 35 31 10 0 31 16 46 35 28 36 41 42 52 26z m-838 -36
c5 -14 -21 -44 -39 -45 -10 0 -20 38 -13 50 10 16 45 12 52 -5z m-172 -15 c3
-5 -1 -10 -10 -10 -9 0 -13 5 -10 10 3 6 8 10 10 10 2 0 7 -4 10 -10z m28 -58
c-13 -2 -23 -8 -23 -13 0 -6 -5 -7 -10 -4 -7 4 -7 13 0 26 9 17 14 18 33 7
l22 -13 -22 -3z m927 -2 c0 -16 -83 -100 -98 -100 -8 0 -31 -13 -52 -30 -21
-16 -45 -30 -53 -30 -9 0 -25 -13 -36 -29 -19 -27 -24 -28 -50 -18 l-30 11 30
18 c16 10 37 18 47 18 9 0 23 9 30 20 7 11 20 20 31 20 10 0 26 9 36 20 10 11
23 20 29 20 6 0 17 9 24 20 7 11 17 20 23 20 7 0 22 11 35 25 25 27 34 31 34
15z m-2560 -32 c16 -27 20 -29 20 -12 0 48 54 60 72 17 8 -21 12 -24 15 -11 6
25 31 30 43 8 9 -17 14 -18 30 -8 22 14 33 8 24 -16 -3 -9 -17 -16 -30 -16
-13 0 -24 -4 -24 -10 0 -5 -13 -7 -30 -3 -18 3 -30 1 -30 -5 0 -7 -29 -10 -77
-9 -77 2 -78 2 -81 29 -4 33 13 68 33 68 9 0 24 -15 35 -32z m-90 -13 c4 -36
0 -45 -19 -45 -18 0 -20 23 -5 69 6 18 22 3 24 -24z m-318 -27 c5 -63 -2 -87
-21 -65 -19 23 -25 85 -11 102 21 25 28 17 32 -37z m250 40 c6 -17 -1 -38 -13
-38 -5 0 -9 11 -9 25 0 26 14 34 22 13z m2098 -63 c-7 -8 -18 -15 -24 -15 -6
0 -2 7 8 15 25 19 32 19 16 0z m-1885 -84 c-3 -6 -11 -8 -17 -5 -6 4 -5 9 3
15 16 10 23 4 14 -10z m2616 -14 c-10 -9 -11 -8 -5 6 3 10 9 15 12 12 3 -3 0
-11 -7 -18z m-441 -34 c0 -9 -65 -63 -75 -63 -9 0 5 41 19 56 12 14 56 19 56
7z m430 -7 c0 -2 -6 -16 -14 -31 l-15 -28 1 31 c1 20 6 32 15 32 7 0 13 -2 13
-4z m-70 -31 c-7 -8 -20 -15 -29 -15 -11 1 -8 5 9 15 32 18 35 18 20 0z
m-3260 -36 c0 -11 -4 -18 -10 -14 -5 3 -7 12 -3 20 7 21 13 19 13 -6z m145
-29 c43 -27 59 -39 144 -114 106 -94 181 -186 181 -225 0 -14 -5 -19 -14 -15
-8 3 -12 12 -9 20 4 10 0 12 -11 8 -11 -4 -34 11 -71 47 -62 59 -114 89 -157
89 -17 0 -28 5 -28 14 0 7 -3 28 -6 45 -5 24 -3 31 10 31 9 0 16 5 16 10 0 6
-1 10 -2 10 -2 0 -34 11 -73 24 -61 21 -70 27 -73 51 -2 15 -1 34 2 42 5 13 9
13 29 1 12 -8 40 -25 62 -38z m2730 -9 c-7 -32 -26 -39 -54 -22 -13 8 -13 12
-1 26 14 17 52 36 58 30 2 -2 1 -17 -3 -34z m-1451 -3 c11 -44 7 -88 -9 -88
-8 0 -15 4 -15 9 0 4 -53 8 -118 7 -81 -1 -124 3 -134 11 -8 7 -17 11 -19 9
-2 -2 -26 1 -52 8 l-49 12 125 18 c68 9 137 21 153 26 16 4 48 9 70 9 35 1 43
-3 48 -21z m1804 6 c-9 -9 -21 -13 -27 -9 -16 10 -3 25 22 25 20 0 20 -1 5
-16z m-3433 -4 c3 -5 2 -10 -4 -10 -5 0 -13 5 -16 10 -3 6 -2 10 4 10 5 0 13
-4 16 -10z m987 -9 c-1 -6 5 -14 13 -17 18 -7 20 -34 3 -34 -9 0 -8 -4 2 -10
8 -5 24 -7 35 -4 19 5 19 4 3 -9 -10 -8 -18 -19 -18 -24 0 -5 -23 -22 -51 -38
-40 -22 -59 -26 -91 -22 -52 7 -77 29 -58 52 10 12 10 21 2 40 -13 29 1 43 24
24 13 -11 18 -10 25 4 6 9 16 17 24 17 8 0 18 6 22 14 14 24 71 30 65 7z
m2398 -16 c-7 -9 -15 -13 -17 -11 -7 7 7 26 19 26 6 0 6 -6 -2 -15z m-3295
-25 c-3 -5 -10 -10 -16 -10 -5 0 -9 5 -9 10 0 6 7 10 16 10 8 0 12 -4 9 -10z
m2705 4 c0 -17 -23 -44 -39 -44 -29 0 -33 13 -9 32 22 17 48 24 48 12z m626
-9 c-25 -19 -41 -19 -24 0 7 8 20 14 28 14 11 0 10 -3 -4 -14z m-2168 -24 c18
-9 61 -23 132 -42 43 -11 44 -12 19 -21 -14 -5 -32 -20 -39 -33 -7 -14 -25
-32 -39 -42 -33 -21 -131 -45 -131 -32 0 6 -4 8 -9 5 -8 -5 -45 3 -82 19 -12
4 -23 -4 -38 -28 -16 -27 -30 -36 -59 -40 -20 -3 -52 -9 -69 -13 -21 -4 -47
-1 -71 9 -23 9 -57 14 -83 11 l-44 -4 35 15 c19 9 51 25 70 36 19 11 47 26 63
32 15 6 27 15 27 19 0 4 6 8 14 8 8 0 21 6 28 13 7 7 43 28 81 46 37 18 67 37
67 42 0 12 105 12 128 0z m2079 -32 c-9 -6 -17 -17 -17 -24 0 -19 -16 -19 -23
0 -4 9 4 19 21 28 30 15 47 11 19 -4z m-527 2 c0 -21 -53 -72 -72 -69 -10 2
-18 8 -17 13 0 6 6 9 11 7 16 -4 58 27 58 43 0 8 5 15 10 15 6 0 10 -4 10 -9z
m-821 -48 c0 -5 -4 -17 -9 -28 -8 -18 -9 -17 -9 8 -1 15 4 27 9 27 6 0 10 -3
9 -7z m1261 -23 c0 -5 7 -7 15 -4 22 9 18 -14 -4 -26 -26 -14 -26 -14 -29 15
-1 14 3 25 8 25 6 0 10 -4 10 -10z m-1472 -45 c0 -42 -1 -45 -21 -39 -31 9
-32 12 -14 32 10 10 17 26 17 35 0 9 4 17 8 17 5 0 9 -20 10 -45z m1532 11 c0
-7 -7 -19 -15 -26 -16 -13 -20 -3 -9 24 8 20 24 21 24 2z m-765 -16 c3 -5 -1
-10 -9 -10 -9 0 -16 5 -16 10 0 6 4 10 9 10 6 0 13 -4 16 -10z m-880 -20 c3
-5 15 -10 26 -10 11 0 22 -7 25 -15 3 -8 22 -17 42 -21 39 -7 72 -29 72 -48 0
-6 -15 -27 -33 -47 -17 -19 -50 -61 -71 -93 -22 -31 -52 -64 -68 -72 -15 -8
-28 -21 -28 -29 0 -8 -5 -15 -11 -15 -6 0 -8 -9 -4 -20 3 -11 2 -20 -4 -20 -5
0 -17 -12 -26 -28 -22 -36 -93 -78 -108 -63 -8 8 -8 14 1 23 7 7 12 19 12 28
0 21 23 46 75 85 22 16 49 37 59 47 11 10 23 18 28 18 4 0 8 4 8 10 0 5 20 37
44 70 49 67 66 117 45 131 -10 6 -15 3 -17 -11 -3 -18 -32 -30 -32 -12 0 4
-14 8 -30 9 -31 2 -38 -5 -19 -24 6 -6 8 -16 5 -22 -9 -14 -26 -14 -26 -1 0 6
-9 20 -20 32 -11 12 -20 17 -20 12 0 -6 5 -15 11 -21 9 -9 3 -15 -22 -26 -24
-10 -38 -25 -48 -50 -8 -20 -18 -34 -23 -31 -11 7 -10 60 1 82 15 27 24 56 22
68 -1 7 25 25 56 42 66 35 70 36 78 22z m1553 -2 c-3 -7 -13 -15 -24 -17 -16
-3 -17 -1 -5 13 16 19 34 21 29 4z m-78 -8 c0 -5 -4 -10 -10 -10 -5 0 -10 5
-10 10 0 6 5 10 10 10 6 0 10 -4 10 -10z m89 -37 c-8 -10 -20 -24 -26 -31 -7
-7 -13 -18 -13 -23 0 -5 -7 -9 -15 -9 -8 0 -15 3 -15 6 0 12 42 59 58 66 25
10 26 9 11 -9z m-94 -13 c-10 -11 -25 -20 -33 -20 -13 0 -12 4 4 19 27 27 53
28 29 1z m128 -20 c-3 -11 -12 -20 -19 -20 -12 0 -12 4 -2 20 7 11 16 20 19
20 4 0 5 -9 2 -20z m-203 -4 c0 -3 -4 -8 -10 -11 -5 -3 -10 -1 -10 4 0 6 5 11
10 11 6 0 10 -2 10 -4z m-1612 -22 c31 -9 27 -24 -6 -24 -34 0 -55 -21 -73
-75 -11 -34 -14 -36 -17 -16 -5 35 5 65 32 94 27 29 29 30 64 21z m1743 -42
c-6 -11 -7 -23 -3 -27 4 -5 1 -5 -5 -1 -16 9 -17 28 -1 44 16 16 22 8 9 -16z
m111 -4 c-7 -7 -12 -8 -12 -2 0 14 12 26 19 19 2 -3 -1 -11 -7 -17z m-1842
-13 c0 -14 -9 -43 -20 -65 -11 -22 -20 -46 -20 -55 0 -8 -5 -15 -11 -15 -6 0
-9 6 -6 14 3 8 -1 17 -9 20 -11 4 -13 12 -8 28 5 13 9 36 10 53 1 22 7 31 25
36 38 11 39 10 39 -16z m1596 6 c-4 -5 -1 -11 6 -13 7 -3 2 -7 -10 -10 -17 -5
-22 -2 -22 13 0 11 7 19 16 19 8 0 13 -4 10 -9z m-1438 -25 c-10 -7 -18 -18
-18 -23 0 -6 -11 -18 -25 -27 -14 -9 -25 -14 -25 -10 0 14 56 73 70 73 12 0
11 -2 -2 -13z m1512 -2 c0 -12 -31 -35 -41 -32 -8 3 -6 10 5 21 17 17 36 23
36 11z m150 -24 c0 -5 -4 -10 -10 -10 -5 0 -10 5 -10 10 0 6 5 10 10 10 6 0
10 -4 10 -10z m-304 -25 c-9 -9 -16 -13 -16 -8 0 12 22 34 28 28 2 -2 -3 -11
-12 -20z m-2325 -58 c32 -32 59 -62 59 -67 0 -13 -34 -22 -38 -11 -2 6 -8 9
-12 6 -10 -6 -50 16 -50 27 0 5 -18 26 -40 48 -23 23 -38 45 -35 50 15 23 59
3 116 -53z m2369 45 c-8 -3 -20 -12 -27 -21 -6 -9 -15 -13 -19 -9 -9 10 38 48
50 40 6 -3 3 -8 -4 -10z m-1733 -102 c-7 -32 -20 -48 -85 -98 -45 -36 -51 -59
-27 -102 27 -47 19 -67 -35 -95 -57 -29 -95 -33 -86 -10 3 8 9 21 12 29 4 11
-15 15 -93 20 -125 9 -178 28 -192 68 -6 16 -34 52 -62 78 l-52 49 26 12 c15
7 27 16 27 20 0 19 57 25 333 38 120 5 221 12 224 15 13 12 15 5 10 -24z
m1692 -1 c-8 -16 -14 -18 -22 -10 -9 9 -8 14 3 21 24 16 31 11 19 -11z m-2549
-34 c0 -7 6 -15 13 -18 9 -4 9 -7 0 -17 -10 -11 -14 -8 -23 14 -13 34 -13 49
0 41 6 -3 10 -12 10 -20z m-244 3 c-3 -7 -9 -21 -12 -30 -4 -12 -17 -18 -35
-18 -16 0 -29 -4 -29 -10 0 -5 -6 -10 -13 -10 -8 0 -33 -14 -55 -30 -47 -34
-57 -21 -14 17 26 25 139 91 155 92 5 1 6 -5 3 -11z m304 3 c0 -5 10 -11 22
-14 12 -4 19 -9 15 -13 -4 -4 -18 -1 -32 6 -25 13 -33 30 -15 30 6 0 10 -4 10
-9z m140 -31 c-8 -5 -22 -10 -30 -10 -13 0 -13 1 0 10 8 5 22 10 30 10 13 0
13 -1 0 -10z m-127 -46 l28 -26 -33 -18 c-30 -17 -34 -17 -45 -2 -7 9 -13 22
-13 29 0 14 20 42 30 43 3 0 18 -12 33 -26z m2187 18 c0 -13 -12 -22 -22 -16
-10 6 -1 24 13 24 5 0 9 -4 9 -8z m31 -56 c-6 -14 -15 -26 -21 -26 -17 0 -11
38 7 49 23 13 26 9 14 -23z m-2648 -40 c6 -15 -1 -26 -15 -26 -5 0 -6 5 -3 10
3 6 1 10 -5 10 -6 0 -8 5 -5 10 9 14 22 12 28 -4z m482 -6 c-5 -9 -49 -30
-110 -55 -17 -7 -18 -9 -3 -12 9 -2 37 5 62 16 25 12 50 21 55 21 6 0 11 5 11
10 0 40 71 -64 131 -194 36 -77 38 -104 21 -266 -17 -155 -35 -237 -72 -315
-17 -38 -37 -95 -42 -125 -6 -30 -12 -60 -13 -66 -2 -6 -33 -20 -69 -30 -102
-29 -81 -41 32 -18 12 2 22 0 22 -6 0 -12 -22 -22 -105 -45 -33 -10 -87 -26
-119 -36 -33 -11 -60 -19 -61 -19 -1 0 -2 7 -2 15 0 8 13 19 29 23 36 9 41 26
11 30 -13 2 -23 -1 -23 -7 0 -5 -20 -13 -45 -17 -28 -4 -45 -11 -45 -20 0 -8
7 -14 15 -14 22 0 18 -15 -7 -28 -34 -17 -106 -42 -167 -57 -59 -15 -113 -35
-121 -45 -9 -11 -112 -41 -119 -35 -3 4 2 11 12 16 23 14 22 39 -3 39 -14 0
-20 -7 -20 -22 0 -16 -3 -19 -11 -11 -6 6 -8 20 -4 32 9 28 51 29 60 1 8 -25
31 -24 70 1 17 10 37 22 45 25 31 14 42 27 29 34 -6 4 -31 -5 -54 -21 -51 -35
-75 -37 -75 -8 0 13 -5 19 -12 17 -7 -3 -22 4 -33 15 -17 17 -17 19 -2 14 9
-4 17 -2 17 3 0 6 -5 10 -12 10 -8 0 -9 27 -3 103 5 56 9 184 10 283 1 178 1
182 25 209 52 56 75 75 92 75 10 0 18 5 18 10 0 14 -23 13 -38 -2 -8 -8 -15
-9 -23 -1 -10 10 54 41 121 58 27 7 85 30 113 46 11 6 17 6 17 -2 0 -6 -9 -13
-20 -16 -23 -6 -26 -21 -6 -29 8 -3 12 -14 9 -27 -4 -22 -4 -22 11 -3 9 11 16
28 16 38 0 10 4 18 8 18 4 0 13 17 19 38 6 20 26 87 45 147 18 61 39 110 46
111 6 1 21 2 31 3 10 0 21 8 24 16 5 11 1 12 -19 5 -40 -16 -51 -11 -24 10 18
14 41 20 85 20 42 0 75 7 110 24 56 27 69 31 60 16z m2150 -37 c-28 -20 -41
-16 -20 7 10 11 22 17 28 13 6 -4 3 -12 -8 -20z m335 19 c0 -5 -7 -9 -15 -9
-8 0 -12 4 -9 9 3 4 9 8 15 8 5 0 9 -4 9 -8z m-40 -62 c0 -5 -5 -10 -11 -10
-5 0 -7 5 -4 10 3 6 8 10 11 10 2 0 4 -4 4 -10z m-3038 -85 c-2 -14 -8 -25
-13 -25 -10 0 -12 43 -3 53 13 12 21 -3 16 -28z m1303 -5 c-3 -5 -13 -10 -21
-10 -8 0 -12 5 -9 10 3 6 13 10 21 10 8 0 12 -4 9 -10z m341 -8 c63 -13 104
-65 104 -131 0 -26 -50 -184 -70 -222 -11 -20 -97 -31 -117 -16 -9 6 -19 5
-30 -4 -15 -12 -16 -12 -9 6 35 90 41 303 10 352 -8 12 -14 25 -14 29 0 7 57
1 126 -14z m-1620 -29 c-11 -11 -17 4 -9 23 7 18 8 18 11 1 2 -10 1 -21 -2
-24z m1829 -23 c4 -6 -5 -10 -20 -10 -15 0 -24 4 -20 10 3 6 12 10 20 10 8 0
17 -4 20 -10z m-1741 -68 c7 -50 2 -62 -22 -62 -9 0 -44 -9 -76 -20 -33 -11
-60 -20 -62 -20 -2 0 8 12 22 27 13 14 38 47 55 72 16 25 33 45 37 44 4 -1 6
5 4 13 -3 12 0 13 16 3 13 -8 22 -28 26 -57z m2826 8 c0 -5 -2 -10 -4 -10 -3
0 -8 5 -11 10 -3 6 -1 10 4 10 6 0 11 -4 11 -10z m-8 -52 c-7 -7 -12 -8 -12
-2 0 14 12 26 19 19 2 -3 -1 -11 -7 -17z m-1007 -58 c3 -5 -3 -10 -15 -10 -12
0 -18 5 -15 10 3 6 10 10 15 10 5 0 12 -4 15 -10z m820 -30 c-3 -5 -11 -10
-16 -10 -6 0 -7 5 -4 10 3 6 11 10 16 10 6 0 7 -4 4 -10z m5 -58 c0 -13 -12
-22 -22 -16 -10 6 -1 24 13 24 5 0 9 -4 9 -8z m-720 -98 c0 -7 7 -19 15 -28
14 -13 12 -14 -18 -9 -23 3 -37 0 -46 -11 -16 -19 -42 -21 -59 -4 -21 21 -14
26 43 33 49 7 53 9 45 25 -14 27 -12 34 5 20 8 -7 15 -18 15 -26z m-142 5 c-2
-6 -8 -10 -13 -10 -5 0 -11 4 -13 10 -2 6 4 11 13 11 9 0 15 -5 13 -11z m-3
-58 c-3 -6 -11 -11 -17 -11 -6 0 -6 6 2 15 14 17 26 13 15 -4z m365 -31 c0 -5
-7 -7 -15 -4 -8 4 -15 8 -15 10 0 2 7 4 15 4 8 0 15 -4 15 -10z m-198 -17 c44
-19 47 -28 16 -38 -13 -5 -32 -11 -43 -15 -11 -4 -30 0 -42 8 -13 8 -29 12
-38 9 -8 -4 -17 -2 -20 3 -4 6 0 10 8 10 7 0 22 9 33 19 24 25 38 25 86 4z
m-402 -24 c0 -5 -7 -9 -15 -9 -15 0 -20 12 -9 23 8 8 24 -1 24 -14z m1189 -11
c0 -13 -3 -18 -5 -11 -3 7 -13 9 -22 6 -14 -6 -15 -5 -2 10 21 23 30 21 29 -5z
m-559 -19 c13 -9 13 -10 -1 -6 -9 3 -22 0 -28 -6 -8 -8 -11 -7 -11 6 0 19 18
22 40 6z m-660 -45 c0 -8 -4 -14 -10 -14 -5 0 -10 9 -10 21 0 11 5 17 10 14 6
-3 10 -13 10 -21z m386 2 c9 -24 47 -27 70 -5 21 19 21 19 47 -5 15 -14 27
-28 27 -31 0 -6 -36 0 -62 10 -11 4 -18 3 -18 -4 0 -7 -8 -8 -24 -1 -14 5 -43
7 -66 4 -38 -5 -40 -4 -31 15 17 30 48 40 57 17z m289 4 c-3 -5 -10 -10 -16
-10 -5 0 -9 5 -9 10 0 6 7 10 16 10 8 0 12 -4 9 -10z m-676 -119 c-18 -6 -42
26 -35 45 6 16 9 14 26 -11 12 -19 16 -31 9 -34z m325 36 c6 -9 7 -19 3 -23
-9 -9 -37 15 -37 33 0 18 20 12 34 -10z m146 14 c0 -5 3 -16 6 -25 4 -11 0
-16 -14 -16 -24 0 -36 15 -28 35 6 16 36 21 36 6z m240 -1 c0 -5 -2 -10 -4
-10 -3 0 -8 5 -11 10 -3 6 -1 10 4 10 6 0 11 -4 11 -10z m-40 -10 c0 -5 -6
-10 -14 -10 -8 0 -18 5 -21 10 -3 6 3 10 14 10 12 0 21 -4 21 -10z m490 -10
c0 -5 -5 -10 -11 -10 -5 0 -7 5 -4 10 3 6 8 10 11 10 2 0 4 -4 4 -10z m-585
-30 c3 -5 1 -10 -4 -10 -6 0 -11 5 -11 10 0 6 2 10 4 10 3 0 8 -4 11 -10z
m-525 -10 c0 -5 -4 -10 -10 -10 -5 0 -10 5 -10 10 0 6 5 10 10 10 6 0 10 -4
10 -10z m1105 -20 c-3 -5 -11 -10 -16 -10 -6 0 -7 5 -4 10 3 6 11 10 16 10 6
0 7 -4 4 -10z m-1127 -27 c-4 -22 -22 -20 -26 1 -2 10 3 16 13 16 10 0 15 -7
13 -17z m1052 3 c0 -3 -4 -8 -10 -11 -5 -3 -10 -1 -10 4 0 6 5 11 10 11 6 0
10 -2 10 -4z m-975 -44 c-9 -10 -45 -12 -45 -4 0 19 23 32 37 20 7 -6 11 -13
8 -16z m-345 -32 c0 -11 -12 -27 -26 -36 -22 -15 -27 -15 -35 -3 -13 21 -11
27 11 34 11 3 20 11 20 16 0 5 7 9 15 9 8 0 15 -9 15 -20z m1316 -7 c-10 -10
-19 5 -10 18 6 11 8 11 12 0 2 -7 1 -15 -2 -18z m-3804 0 c28 -33 68 -173 49
-173 -5 0 -11 5 -13 10 -2 6 -29 14 -60 20 -65 10 -101 26 -96 42 2 6 29 24
58 40 59 31 71 45 46 54 -9 3 -16 10 -16 15 0 15 16 10 32 -8z m3265 -59 c-3
-3 -12 -4 -19 -1 -8 3 -5 6 6 6 11 1 17 -2 13 -5z m363 -74 c0 -5 -4 -10 -10
-10 -5 0 -10 5 -10 10 0 6 5 10 10 10 6 0 10 -4 10 -10z m-3910 -34 c0 -3 -4
-8 -10 -11 -5 -3 -10 -1 -10 4 0 6 5 11 10 11 6 0 10 -2 10 -4z m59 1 c-2 -1
-13 -9 -24 -17 -19 -14 -19 -14 -6 3 7 9 18 17 24 17 6 0 8 -1 6 -3z m64 -64
c-7 -2 -19 -2 -25 0 -7 3 -2 5 12 5 14 0 19 -2 13 -5z m383 -28 c-10 -7 -15
-18 -11 -24 8 -13 -5 -14 -24 -2 -20 13 3 41 33 41 20 -1 20 -1 2 -15z m734
-5 c0 -5 -5 -10 -11 -10 -5 0 -7 5 -4 10 3 6 8 10 11 10 2 0 4 -4 4 -10z"/>
<path d="M961 3447 c-25 -25 -2 -59 24 -37 8 7 15 18 15 25 0 18 -25 26 -39
12z"/>
<path d="M2607 3182 c-24 -26 -21 -39 11 -50 21 -8 22 -11 7 -11 -37 -2 9 -32
56 -37 l44 -5 -32 17 c-18 9 -30 20 -27 25 8 14 206 -2 229 -17 23 -16 51 -18
60 -4 16 26 -57 80 -81 59 -18 -14 -184 11 -184 28 0 20 -64 16 -83 -5z"/>
<path d="M2753 3073 c9 -2 25 -2 35 0 9 3 1 5 -18 5 -19 0 -27 -2 -17 -5z"/>
<path d="M1510 2954 c0 -8 5 -12 10 -9 6 3 10 10 10 16 0 5 -4 9 -10 9 -5 0
-10 -7 -10 -16z"/>
<path d="M4170 2785 c0 -8 7 -15 15 -15 8 0 15 4 15 9 0 5 -7 11 -15 15 -9 3
-15 0 -15 -9z"/>
<path d="M2903 2083 c9 -2 23 -2 30 0 6 3 -1 5 -18 5 -16 0 -22 -2 -12 -5z"/>
<path d="M2430 2130 c0 -5 5 -10 10 -10 6 0 10 5 10 10 0 6 -4 10 -10 10 -5 0
-10 -4 -10 -10z"/>
<path d="M2532 1490 c-97 -14 -123 -21 -117 -30 3 -5 16 -10 28 -9 12 0 45 -3
72 -7 40 -5 54 -2 72 13 12 10 30 23 40 30 16 11 15 12 -12 11 -16 0 -54 -4
-83 -8z"/>
<path d="M2060 1276 c0 -15 18 -31 26 -23 7 7 -7 37 -17 37 -5 0 -9 -6 -9 -14z"/>
<path d="M2070 1213 c0 -5 12 -21 26 -38 26 -29 26 -29 19 -5 -4 14 -12 31
-17 38 -11 13 -28 16 -28 5z"/>
<path d="M2140 1135 c7 -9 15 -13 17 -11 7 7 -7 26 -19 26 -6 0 -6 -6 2 -15z"/>
<path d="M1560 934 c0 -17 22 -14 28 4 2 7 -3 12 -12 12 -9 0 -16 -7 -16 -16z"/>
<path d="M1515 920 c-3 -5 1 -10 9 -10 9 0 16 5 16 10 0 6 -4 10 -9 10 -6 0
-13 -4 -16 -10z"/>
<path d="M1460 900 c0 -5 6 -10 14 -10 8 0 18 5 21 10 3 6 -3 10 -14 10 -12 0
-21 -4 -21 -10z"/>
<path d="M1476 453 c-2 -10 -7 -28 -11 -41 -6 -21 -5 -21 19 -11 26 12 31 25
20 53 -8 21 -21 20 -28 -1z"/>
<path d="M1470 341 c0 -38 2 -41 15 -27 8 8 15 21 15 29 0 8 -7 20 -15 27 -13
11 -15 7 -15 -29z"/>
<path d="M1890 310 c0 -6 -8 -10 -17 -8 -10 2 -19 -5 -21 -15 -3 -16 -1 -17
16 -8 12 6 30 11 41 11 12 0 21 7 21 15 0 8 -9 15 -20 15 -11 0 -20 -5 -20
-10z"/>
<path d="M1610 228 c-25 -6 -50 -14 -56 -19 -6 -5 -18 -7 -27 -3 -15 5 -34
-12 -24 -23 9 -9 166 29 178 43 14 17 -3 17 -71 2z"/>
<path d="M3440 650 c0 -5 5 -10 10 -10 6 0 10 5 10 10 0 6 -4 10 -10 10 -5 0
-10 -4 -10 -10z"/>
<path d="M1360 4028 l-21 -23 45 -3 c41 -3 53 -10 121 -74 42 -39 78 -82 82
-96 3 -14 12 -37 19 -51 8 -14 14 -32 14 -38 0 -7 5 -13 10 -13 6 0 10 -6 10
-12 0 -7 6 -25 14 -39 7 -14 16 -38 20 -54 4 -16 17 -38 29 -49 57 -54 83
-129 65 -191 -19 -65 -31 -67 -24 -3 6 61 -7 108 -31 108 -16 0 -50 19 -77 43
-14 12 -29 16 -49 11 -21 -4 -28 -2 -26 8 3 28 -2 38 -21 38 -10 0 -23 6 -27
13 -4 6 -17 17 -28 24 -11 6 -19 16 -18 22 2 6 -3 11 -11 11 -21 0 -8 -38 15
-45 11 -4 24 -15 29 -26 6 -10 19 -19 30 -19 14 0 21 -10 26 -37 9 -49 55
-151 61 -135 10 26 40 11 61 -30 32 -68 34 -79 33 -159 -1 -73 0 -76 30 -98
29 -21 31 -27 26 -68 -4 -38 -1 -48 22 -69 33 -31 38 -30 46 6 4 17 12 30 19
30 8 0 11 12 8 34 -3 28 1 37 27 55 24 17 31 19 31 8 0 -10 14 -16 43 -19 23
-3 44 -3 46 -2 2 2 -9 14 -24 27 l-28 24 113 6 c62 4 115 8 117 10 2 2 1 12
-3 21 -5 13 -17 17 -48 15 -72 -4 -102 1 -122 20 -11 10 -30 21 -41 25 -18 6
-53 73 -53 102 0 6 -12 15 -27 20 -26 9 -23 11 37 23 36 7 74 17 86 23 12 5
47 8 78 6 31 -2 56 -1 56 3 0 4 12 10 26 13 21 6 23 10 14 21 -20 24 -69 28
-146 9 -54 -12 -73 -21 -70 -31 4 -9 -5 -13 -33 -13 -22 0 -48 -3 -58 -6 -21
-7 52 66 92 92 14 9 25 24 23 33 -1 9 1 21 5 28 10 16 -25 74 -41 68 -10 -3
-11 1 -7 16 6 18 4 20 -13 15 -14 -5 -21 -1 -25 14 -11 44 54 127 130 165 21
11 51 31 66 45 17 15 41 25 60 26 86 3 93 4 75 15 -10 5 -18 17 -18 25 0 9 8
14 18 13 34 -3 53 1 47 11 -8 12 -52 13 -59 1 -3 -5 -33 -12 -66 -16 -34 -4
-70 -15 -84 -26 -13 -10 -29 -19 -34 -19 -5 0 -15 -7 -22 -15 -7 -8 -21 -15
-32 -15 -11 0 -40 -18 -65 -40 -25 -22 -50 -40 -55 -40 -20 0 -58 33 -58 51 0
10 -3 20 -7 22 -5 3 -9 -22 -11 -55 -3 -74 -39 -218 -59 -238 -13 -13 -14 -10
-8 30 4 25 11 53 16 62 12 22 12 88 0 88 -5 0 -11 -18 -15 -41 -4 -23 -13 -48
-21 -56 -13 -13 -15 -10 -15 26 0 23 -5 41 -11 41 -6 0 -8 9 -4 20 4 12 2 20
-5 20 -6 0 -11 12 -10 28 1 15 2 36 1 47 -1 19 -2 19 -19 -3 -21 -27 -34 -19
-26 15 5 19 3 22 -12 16 -13 -5 -16 -3 -11 10 6 16 -13 67 -25 67 -4 0 -5 7
-1 17 5 13 2 15 -15 11 -12 -3 -29 0 -39 8 -10 7 -28 14 -39 14 -12 0 -27 7
-34 15 -7 8 -19 15 -26 15 -8 0 -14 5 -14 10 0 18 -29 11 -50 -12z m250 -508
c0 -5 -4 -10 -10 -10 -5 0 -10 5 -10 10 0 6 5 10 10 10 6 0 10 -4 10 -10z"/>
<path d="M2380 3980 c-13 -9 -13 -10 0 -10 8 0 26 -3 40 -6 24 -5 24 -5 6 10
-23 19 -26 19 -46 6z"/>
<path d="M22 3971 c-10 -6 -10 -10 3 -21 8 -7 18 -10 22 -6 3 3 1 6 -5 6 -6 0
-9 7 -6 15 7 17 4 18 -14 6z"/>
<path d="M145 3970 c3 -5 8 -10 11 -10 2 0 4 5 4 10 0 6 -5 10 -11 10 -5 0 -7
-4 -4 -10z"/>
<path d="M60 3950 c0 -5 5 -10 10 -10 6 0 10 5 10 10 0 6 -4 10 -10 10 -5 0
-10 -4 -10 -10z"/>
<path d="M111 3942 c4 -27 -3 -44 -16 -38 -10 4 -15 -1 -15 -14 0 -17 3 -18
25 -8 14 6 25 15 25 19 0 4 3 14 6 22 3 8 -2 17 -10 20 -9 4 -15 3 -15 -1z"/>
<path d="M0 3890 c0 -20 5 -30 15 -30 8 0 15 5 15 10 0 6 -5 10 -11 10 -6 0
-9 9 -6 20 3 11 1 20 -4 20 -5 0 -9 -13 -9 -30z"/>
<path d="M71 3791 c-10 -6 -10 -10 -1 -16 13 -8 24 -1 19 14 -3 6 -10 7 -18 2z"/>
<path d="M3247 3794 c-4 -4 -7 -14 -7 -23 0 -11 3 -12 11 -4 6 6 10 16 7 23
-2 6 -7 8 -11 4z"/>
<path d="M3540 3780 c0 -5 5 -10 10 -10 6 0 10 5 10 10 0 6 -4 10 -10 10 -5 0
-10 -4 -10 -10z"/>
<path d="M3428 3763 c7 -3 16 -2 19 1 4 3 -2 6 -13 5 -11 0 -14 -3 -6 -6z"/>
<path d="M3360 3730 c0 -5 5 -10 10 -10 6 0 10 5 10 10 0 6 -4 10 -10 10 -5 0
-10 -4 -10 -10z"/>
<path d="M3227 3706 c-4 -10 -5 -21 -2 -24 9 -9 17 6 13 25 -3 17 -4 17 -11
-1z"/>
<path d="M4288 3702 c-22 -4 -24 -32 -3 -32 9 0 18 7 22 15 7 19 3 22 -19 17z"/>
<path d="M3655 3670 c-10 -11 -13 -20 -7 -20 6 0 16 9 22 20 6 11 9 20 7 20
-2 0 -12 -9 -22 -20z"/>
<path d="M3522 3628 c-16 -16 -15 -56 2 -74 16 -15 18 -14 43 34 6 12 9 22 7
22 -3 0 -14 -10 -25 -22 -16 -20 -18 -21 -19 -5 0 10 5 27 10 38 12 21 1 26
-18 7z"/>
<path d="M4230 3615 c0 -27 9 -32 27 -14 14 14 6 39 -13 39 -8 0 -14 -10 -14
-25z"/>
<path d="M3226 3587 c3 -10 9 -15 12 -12 3 3 0 11 -7 18 -10 9 -11 8 -5 -6z"/>
<path d="M4147 3564 c-4 -4 -4 -10 -1 -15 6 -10 34 0 34 12 0 10 -24 12 -33 3z"/>
<path d="M3515 3519 c-4 -6 -5 -13 -2 -16 7 -7 27 6 27 18 0 12 -17 12 -25 -2z"/>
<path d="M4056 3515 c-7 -19 14 -19 40 0 18 14 18 14 -7 15 -15 0 -29 -7 -33
-15z"/>
<path d="M3975 3469 c-11 -17 1 -21 15 -4 8 9 8 15 2 15 -6 0 -14 -5 -17 -11z"/>
<path d="M4920 3470 c0 -6 9 -20 20 -32 23 -25 25 -20 8 17 -11 25 -28 34 -28
15z"/>
<path d="M3427 3438 c-30 -32 -31 -43 -3 -32 15 6 41 52 34 60 -2 1 -16 -11
-31 -28z"/>
<path d="M3896 3414 c-22 -22 -20 -37 3 -25 20 11 36 41 21 41 -5 0 -16 -7
-24 -16z"/>
<path d="M2120 3370 c0 -5 5 -10 10 -10 6 0 10 5 10 10 0 6 -4 10 -10 10 -5 0
-10 -4 -10 -10z"/>
<path d="M5005 3321 c-7 -23 -20 -27 -30 -11 -10 15 -35 12 -35 -5 0 -8 -4
-15 -10 -15 -5 0 -10 -7 -10 -15 0 -17 27 -20 50 -5 9 5 19 5 27 -2 23 -19 45
-1 41 34 -4 37 -23 48 -33 19z"/>
<path d="M1562 3303 c2 -14 8 -28 14 -30 7 -2 9 8 6 27 -5 37 -25 40 -20 3z"/>
<path d="M4829 3249 c-21 -31 -22 -32 -4 -45 10 -8 29 -11 42 -8 43 11 40 -23
-6 -65 -22 -21 -41 -43 -41 -49 0 -12 48 -48 54 -41 1 2 13 21 25 42 25 40 31
43 50 25 12 -13 26 -2 51 42 6 11 11 12 23 2 21 -18 50 17 41 52 -10 40 -64
29 -64 -14 0 -16 -47 -43 -60 -35 -5 3 -6 14 -3 25 8 30 -15 76 -43 89 -36 16
-40 15 -65 -20z"/>
<path d="M4718 3206 c-7 -8 -21 -25 -32 -40 -16 -22 -24 -25 -57 -20 -34 6
-41 3 -68 -27 -17 -18 -31 -39 -31 -46 0 -9 -17 -13 -54 -13 -52 0 -55 -1 -67
-32 -7 -18 -14 -36 -16 -40 -2 -3 12 -12 31 -19 41 -15 41 -14 20 -64 -18 -45
-12 -53 45 -59 5 -1 23 18 40 41 30 41 30 41 71 31 38 -10 43 -9 58 13 9 13
19 33 22 44 4 15 16 21 46 23 33 2 44 9 58 33 30 52 -2 79 -52 43 -21 -14 -22
-14 -22 8 0 15 14 35 40 57 42 34 51 65 24 75 -25 9 -41 7 -56 -8z m-61 -114
c-21 -23 -22 -61 -2 -68 8 -4 15 -10 15 -15 0 -5 -7 -9 -15 -9 -8 0 -15 -4
-15 -9 0 -11 -63 -21 -90 -14 -17 4 -20 11 -15 27 3 11 7 28 9 35 3 16 91 69
115 70 11 1 11 -3 -2 -17z"/>
<path d="M5100 3200 c-9 -6 -10 -10 -3 -10 6 0 15 5 18 10 8 12 4 12 -15 0z"/>
<path d="M5052 1908 c-6 -6 -12 -19 -12 -27 1 -17 69 -66 78 -56 3 3 0 5 -6 5
-7 0 -12 10 -12 23 0 12 -8 32 -18 45 -14 18 -20 20 -30 10z"/>
<path d="M1570 95 c-14 -16 -10 -18 14 -9 9 3 16 10 16 15 0 14 -16 11 -30 -6z"/>
<path d="M1535 70 c-3 -5 -1 -10 4 -10 6 0 11 5 11 10 0 6 -2 10 -4 10 -3 0
-8 -4 -11 -10z"/>
<path d="M1430 50 c0 -22 -16 -27 -22 -8 -6 17 -28 0 -28 -23 0 -17 7 -19 74
-19 76 0 98 12 70 38 -8 7 -14 8 -14 2 0 -17 -25 -11 -38 10 -7 11 -19 20 -27
20 -8 0 -15 -9 -15 -20z"/>
<path d="M1336 15 c-3 -9 0 -15 9 -15 8 0 15 7 15 15 0 8 -4 15 -9 15 -5 0
-11 -7 -15 -15z"/>
</g>
</svg>
